<mxfile host="Electron" modified="2024-03-30T13:31:16.037Z" agent="Mozilla/5.0 (Windows NT 10.0; Win64; x64) AppleWebKit/537.36 (KHTML, like Gecko) draw.io/22.0.0 Chrome/114.0.5735.289 Electron/25.8.3 Safari/537.36" etag="DGpWp4HCa7Tfe6-z0Nty" version="22.0.0" type="device">
  <diagram name="Page-1" id="KZKv4k9OIIPsmqjXzJB-">
    <mxGraphModel dx="3428" dy="1016" grid="1" gridSize="10" guides="1" tooltips="1" connect="1" arrows="1" fold="1" page="1" pageScale="1" pageWidth="850" pageHeight="1100" math="0" shadow="0">
      <root>
        <mxCell id="0" />
        <mxCell id="1" parent="0" />
        <mxCell id="1v6yd805NNm5kGZfxwTU-30" value="" style="whiteSpace=wrap;html=1;aspect=fixed;strokeWidth=3;" parent="1" vertex="1">
          <mxGeometry x="-840" y="370" width="360" height="360" as="geometry" />
        </mxCell>
        <mxCell id="1v6yd805NNm5kGZfxwTU-31" value="&amp;nbsp; &amp;nbsp;&lt;font style=&quot;font-size: 16px;&quot;&gt;Student Dashboard&lt;/font&gt;" style="rounded=0;whiteSpace=wrap;html=1;strokeWidth=3;align=left;" parent="1" vertex="1">
          <mxGeometry x="-840" y="370" width="360" height="40" as="geometry" />
        </mxCell>
        <mxCell id="1v6yd805NNm5kGZfxwTU-32" value="" style="rounded=0;whiteSpace=wrap;html=1;strokeWidth=2;" parent="1" vertex="1">
          <mxGeometry x="-839" y="411" width="159" height="319" as="geometry" />
        </mxCell>
        <mxCell id="1v6yd805NNm5kGZfxwTU-33" value="" style="rounded=1;whiteSpace=wrap;html=1;" parent="1" vertex="1">
          <mxGeometry x="-824.25" y="430" width="129.5" height="30" as="geometry" />
        </mxCell>
        <mxCell id="1v6yd805NNm5kGZfxwTU-34" value="" style="rounded=1;whiteSpace=wrap;html=1;" parent="1" vertex="1">
          <mxGeometry x="-824.25" y="480" width="129.5" height="30" as="geometry" />
        </mxCell>
        <mxCell id="1v6yd805NNm5kGZfxwTU-35" value="Live Sessions" style="rounded=1;whiteSpace=wrap;html=1;" parent="1" vertex="1">
          <mxGeometry x="-826.25" y="540" width="134.25" height="30" as="geometry" />
        </mxCell>
        <mxCell id="1v6yd805NNm5kGZfxwTU-36" value="" style="rounded=0;whiteSpace=wrap;html=1;" parent="1" vertex="1">
          <mxGeometry x="-811.62" y="444" width="104.25" height="1" as="geometry" />
        </mxCell>
        <mxCell id="1v6yd805NNm5kGZfxwTU-37" value="" style="rounded=0;whiteSpace=wrap;html=1;" parent="1" vertex="1">
          <mxGeometry x="-811.62" y="494" width="104.25" height="1" as="geometry" />
        </mxCell>
        <mxCell id="1v6yd805NNm5kGZfxwTU-38" value="" style="rounded=1;whiteSpace=wrap;html=1;" parent="1" vertex="1">
          <mxGeometry x="-824.25" y="480" width="129.5" height="30" as="geometry" />
        </mxCell>
        <mxCell id="1v6yd805NNm5kGZfxwTU-39" value="" style="rounded=0;whiteSpace=wrap;html=1;" parent="1" vertex="1">
          <mxGeometry x="-811.63" y="493" width="104.25" height="1" as="geometry" />
        </mxCell>
        <mxCell id="1v6yd805NNm5kGZfxwTU-40" value="" style="whiteSpace=wrap;html=1;aspect=fixed;" parent="1" vertex="1">
          <mxGeometry x="-660" y="460" width="150" height="150" as="geometry" />
        </mxCell>
        <mxCell id="1v6yd805NNm5kGZfxwTU-41" value="" style="endArrow=none;html=1;rounded=0;entryX=1;entryY=0;entryDx=0;entryDy=0;exitX=0;exitY=1;exitDx=0;exitDy=0;" parent="1" source="1v6yd805NNm5kGZfxwTU-40" target="1v6yd805NNm5kGZfxwTU-40" edge="1">
          <mxGeometry width="50" height="50" relative="1" as="geometry">
            <mxPoint x="-650" y="550" as="sourcePoint" />
            <mxPoint x="-600" y="500" as="targetPoint" />
          </mxGeometry>
        </mxCell>
        <mxCell id="1v6yd805NNm5kGZfxwTU-42" value="" style="endArrow=none;html=1;rounded=0;entryX=0;entryY=0;entryDx=0;entryDy=0;exitX=1;exitY=1;exitDx=0;exitDy=0;" parent="1" source="1v6yd805NNm5kGZfxwTU-40" target="1v6yd805NNm5kGZfxwTU-40" edge="1">
          <mxGeometry width="50" height="50" relative="1" as="geometry">
            <mxPoint x="-650" y="550" as="sourcePoint" />
            <mxPoint x="-600" y="500" as="targetPoint" />
          </mxGeometry>
        </mxCell>
        <mxCell id="1v6yd805NNm5kGZfxwTU-43" value="" style="endArrow=classic;html=1;rounded=0;exitX=1;exitY=0.5;exitDx=0;exitDy=0;entryX=0.317;entryY=-0.007;entryDx=0;entryDy=0;entryPerimeter=0;" parent="1" source="1v6yd805NNm5kGZfxwTU-35" target="1v6yd805NNm5kGZfxwTU-45" edge="1">
          <mxGeometry width="50" height="50" relative="1" as="geometry">
            <mxPoint x="-460" y="580" as="sourcePoint" />
            <mxPoint x="-450" y="750" as="targetPoint" />
            <Array as="points">
              <mxPoint x="-450" y="555" />
              <mxPoint x="-450" y="640" />
            </Array>
          </mxGeometry>
        </mxCell>
        <mxCell id="1v6yd805NNm5kGZfxwTU-44" value="" style="whiteSpace=wrap;html=1;aspect=fixed;strokeWidth=3;" parent="1" vertex="1">
          <mxGeometry x="-570" y="760" width="380" height="380" as="geometry" />
        </mxCell>
        <mxCell id="1v6yd805NNm5kGZfxwTU-45" value="&lt;font style=&quot;font-size: 16px;&quot;&gt;&amp;nbsp; Student Dashboard&lt;/font&gt;" style="rounded=0;whiteSpace=wrap;html=1;strokeWidth=3;align=left;" parent="1" vertex="1">
          <mxGeometry x="-570" y="760" width="380" height="50" as="geometry" />
        </mxCell>
        <mxCell id="1v6yd805NNm5kGZfxwTU-61" value="" style="rounded=0;whiteSpace=wrap;html=1;strokeWidth=2;" parent="1" vertex="1">
          <mxGeometry x="-570" y="810" width="150" height="330" as="geometry" />
        </mxCell>
        <mxCell id="1v6yd805NNm5kGZfxwTU-62" value="" style="rounded=1;whiteSpace=wrap;html=1;" parent="1" vertex="1">
          <mxGeometry x="-559.75" y="825" width="129.5" height="30" as="geometry" />
        </mxCell>
        <mxCell id="1v6yd805NNm5kGZfxwTU-63" value="" style="rounded=0;whiteSpace=wrap;html=1;" parent="1" vertex="1">
          <mxGeometry x="-547.12" y="839" width="104.25" height="1" as="geometry" />
        </mxCell>
        <mxCell id="1v6yd805NNm5kGZfxwTU-64" value="" style="rounded=1;whiteSpace=wrap;html=1;" parent="1" vertex="1">
          <mxGeometry x="-559.75" y="880" width="129.5" height="30" as="geometry" />
        </mxCell>
        <mxCell id="1v6yd805NNm5kGZfxwTU-65" value="" style="rounded=0;whiteSpace=wrap;html=1;" parent="1" vertex="1">
          <mxGeometry x="-547.12" y="894" width="104.25" height="1" as="geometry" />
        </mxCell>
        <mxCell id="1v6yd805NNm5kGZfxwTU-67" value="" style="rounded=0;whiteSpace=wrap;html=1;dashed=1;dashPattern=12 12;" parent="1" vertex="1">
          <mxGeometry x="-570" y="930" width="150" height="60" as="geometry" />
        </mxCell>
        <mxCell id="1v6yd805NNm5kGZfxwTU-66" value="Live Sessions" style="rounded=1;whiteSpace=wrap;html=1;" parent="1" vertex="1">
          <mxGeometry x="-562.13" y="945" width="134.25" height="30" as="geometry" />
        </mxCell>
        <mxCell id="1v6yd805NNm5kGZfxwTU-69" value="" style="rounded=0;whiteSpace=wrap;html=1;" parent="1" vertex="1">
          <mxGeometry x="-410" y="847.5" width="210" height="102.5" as="geometry" />
        </mxCell>
        <mxCell id="1v6yd805NNm5kGZfxwTU-70" value="A live session has been created by....." style="text;html=1;strokeColor=none;fillColor=none;align=center;verticalAlign=middle;whiteSpace=wrap;rounded=0;fontSize=11;" parent="1" vertex="1">
          <mxGeometry x="-331" y="862" width="105" height="48" as="geometry" />
        </mxCell>
        <mxCell id="1v6yd805NNm5kGZfxwTU-72" value="" style="ellipse;whiteSpace=wrap;html=1;aspect=fixed;" parent="1" vertex="1">
          <mxGeometry x="-400" y="867" width="60" height="60" as="geometry" />
        </mxCell>
        <mxCell id="1v6yd805NNm5kGZfxwTU-73" value="" style="endArrow=none;html=1;rounded=0;entryX=1;entryY=0;entryDx=0;entryDy=0;exitX=0;exitY=1;exitDx=0;exitDy=0;" parent="1" source="1v6yd805NNm5kGZfxwTU-72" target="1v6yd805NNm5kGZfxwTU-72" edge="1">
          <mxGeometry width="50" height="50" relative="1" as="geometry">
            <mxPoint x="-610" y="932" as="sourcePoint" />
            <mxPoint x="-560" y="882" as="targetPoint" />
          </mxGeometry>
        </mxCell>
        <mxCell id="1v6yd805NNm5kGZfxwTU-74" value="" style="endArrow=none;html=1;rounded=0;entryX=0;entryY=0;entryDx=0;entryDy=0;exitX=1;exitY=1;exitDx=0;exitDy=0;" parent="1" source="1v6yd805NNm5kGZfxwTU-72" target="1v6yd805NNm5kGZfxwTU-72" edge="1">
          <mxGeometry width="50" height="50" relative="1" as="geometry">
            <mxPoint x="-610" y="932" as="sourcePoint" />
            <mxPoint x="-560" y="882" as="targetPoint" />
          </mxGeometry>
        </mxCell>
        <mxCell id="1v6yd805NNm5kGZfxwTU-75" value="&lt;font style=&quot;font-size: 14px;&quot;&gt;Join&lt;/font&gt;" style="rounded=1;whiteSpace=wrap;html=1;" parent="1" vertex="1">
          <mxGeometry x="-280" y="917" width="70" height="23" as="geometry" />
        </mxCell>
        <mxCell id="1v6yd805NNm5kGZfxwTU-105" value="" style="endArrow=classic;html=1;rounded=0;exitX=1;exitY=0.5;exitDx=0;exitDy=0;" parent="1" source="1v6yd805NNm5kGZfxwTU-75" edge="1">
          <mxGeometry width="50" height="50" relative="1" as="geometry">
            <mxPoint x="-380" y="780" as="sourcePoint" />
            <mxPoint x="-170" y="670" as="targetPoint" />
            <Array as="points">
              <mxPoint x="-170" y="929" />
            </Array>
          </mxGeometry>
        </mxCell>
        <mxCell id="1v6yd805NNm5kGZfxwTU-106" value="" style="rounded=0;whiteSpace=wrap;html=1;" parent="1" vertex="1">
          <mxGeometry x="-310" y="460" width="230" height="110" as="geometry" />
        </mxCell>
        <mxCell id="1v6yd805NNm5kGZfxwTU-107" value="" style="html=1;verticalLabelPosition=bottom;labelBackgroundColor=#ffffff;verticalAlign=top;shadow=0;dashed=0;strokeWidth=2;shape=mxgraph.ios7.misc.loading_circle;" parent="1" vertex="1">
          <mxGeometry x="-214" y="581" width="40" height="40" as="geometry" />
        </mxCell>
        <mxCell id="1v6yd805NNm5kGZfxwTU-108" value="Please wait for permission" style="text;html=1;strokeColor=none;fillColor=none;align=center;verticalAlign=middle;whiteSpace=wrap;rounded=0;" parent="1" vertex="1">
          <mxGeometry x="-275" y="535" width="175" height="30" as="geometry" />
        </mxCell>
        <mxCell id="ahqFP6FvDFRgQjZvx1j--1" value="" style="whiteSpace=wrap;html=1;aspect=fixed;strokeWidth=3;" vertex="1" parent="1">
          <mxGeometry x="-1437.37" y="825" width="360" height="360" as="geometry" />
        </mxCell>
        <mxCell id="ahqFP6FvDFRgQjZvx1j--2" value="&amp;nbsp; &amp;nbsp;&lt;font style=&quot;font-size: 16px;&quot;&gt;Teacher&lt;/font&gt;&lt;font style=&quot;font-size: 16px;&quot;&gt;&amp;nbsp;Dashboard&lt;/font&gt;" style="rounded=0;whiteSpace=wrap;html=1;strokeWidth=3;align=left;" vertex="1" parent="1">
          <mxGeometry x="-1437.37" y="825" width="360" height="40" as="geometry" />
        </mxCell>
        <mxCell id="ahqFP6FvDFRgQjZvx1j--3" value="" style="rounded=0;whiteSpace=wrap;html=1;strokeWidth=2;" vertex="1" parent="1">
          <mxGeometry x="-1436.37" y="866" width="159" height="319" as="geometry" />
        </mxCell>
        <mxCell id="ahqFP6FvDFRgQjZvx1j--4" value="" style="rounded=1;whiteSpace=wrap;html=1;" vertex="1" parent="1">
          <mxGeometry x="-1421.62" y="885" width="129.5" height="30" as="geometry" />
        </mxCell>
        <mxCell id="ahqFP6FvDFRgQjZvx1j--5" value="" style="rounded=1;whiteSpace=wrap;html=1;" vertex="1" parent="1">
          <mxGeometry x="-1421.62" y="935" width="129.5" height="30" as="geometry" />
        </mxCell>
        <mxCell id="ahqFP6FvDFRgQjZvx1j--6" value="Create Live session" style="rounded=1;whiteSpace=wrap;html=1;" vertex="1" parent="1">
          <mxGeometry x="-1423.62" y="995" width="134.25" height="30" as="geometry" />
        </mxCell>
        <mxCell id="ahqFP6FvDFRgQjZvx1j--7" value="" style="rounded=0;whiteSpace=wrap;html=1;" vertex="1" parent="1">
          <mxGeometry x="-1408.9899999999998" y="899" width="104.25" height="1" as="geometry" />
        </mxCell>
        <mxCell id="ahqFP6FvDFRgQjZvx1j--8" value="" style="rounded=0;whiteSpace=wrap;html=1;" vertex="1" parent="1">
          <mxGeometry x="-1408.9899999999998" y="949" width="104.25" height="1" as="geometry" />
        </mxCell>
        <mxCell id="ahqFP6FvDFRgQjZvx1j--9" value="" style="rounded=1;whiteSpace=wrap;html=1;" vertex="1" parent="1">
          <mxGeometry x="-1421.62" y="935" width="129.5" height="30" as="geometry" />
        </mxCell>
        <mxCell id="ahqFP6FvDFRgQjZvx1j--10" value="" style="rounded=0;whiteSpace=wrap;html=1;" vertex="1" parent="1">
          <mxGeometry x="-1409" y="948" width="104.25" height="1" as="geometry" />
        </mxCell>
        <mxCell id="ahqFP6FvDFRgQjZvx1j--11" value="" style="whiteSpace=wrap;html=1;aspect=fixed;" vertex="1" parent="1">
          <mxGeometry x="-1257.37" y="915" width="150" height="150" as="geometry" />
        </mxCell>
        <mxCell id="ahqFP6FvDFRgQjZvx1j--12" value="" style="endArrow=none;html=1;rounded=0;entryX=1;entryY=0;entryDx=0;entryDy=0;exitX=0;exitY=1;exitDx=0;exitDy=0;" edge="1" parent="1" source="ahqFP6FvDFRgQjZvx1j--11" target="ahqFP6FvDFRgQjZvx1j--11">
          <mxGeometry width="50" height="50" relative="1" as="geometry">
            <mxPoint x="-1247.37" y="1005" as="sourcePoint" />
            <mxPoint x="-1197.37" y="955" as="targetPoint" />
          </mxGeometry>
        </mxCell>
        <mxCell id="ahqFP6FvDFRgQjZvx1j--13" value="" style="endArrow=none;html=1;rounded=0;entryX=0;entryY=0;entryDx=0;entryDy=0;exitX=1;exitY=1;exitDx=0;exitDy=0;" edge="1" parent="1" source="ahqFP6FvDFRgQjZvx1j--11" target="ahqFP6FvDFRgQjZvx1j--11">
          <mxGeometry width="50" height="50" relative="1" as="geometry">
            <mxPoint x="-1247.37" y="1005" as="sourcePoint" />
            <mxPoint x="-1197.37" y="955" as="targetPoint" />
          </mxGeometry>
        </mxCell>
        <mxCell id="ahqFP6FvDFRgQjZvx1j--14" value="" style="whiteSpace=wrap;html=1;aspect=fixed;" vertex="1" parent="1">
          <mxGeometry x="-1007.37" y="1105" width="300" height="300" as="geometry" />
        </mxCell>
        <mxCell id="ahqFP6FvDFRgQjZvx1j--15" value="&lt;font style=&quot;font-size: 19px;&quot;&gt;&amp;nbsp;Create a live session&lt;/font&gt;" style="rounded=0;whiteSpace=wrap;html=1;align=left;" vertex="1" parent="1">
          <mxGeometry x="-1007.37" y="1105" width="300" height="50" as="geometry" />
        </mxCell>
        <mxCell id="ahqFP6FvDFRgQjZvx1j--16" value="&lt;font style=&quot;font-size: 14px;&quot;&gt;Session Title :&lt;/font&gt;" style="rounded=0;whiteSpace=wrap;html=1;" vertex="1" parent="1">
          <mxGeometry x="-997.37" y="1175" width="100" height="30" as="geometry" />
        </mxCell>
        <mxCell id="ahqFP6FvDFRgQjZvx1j--17" value="" style="rounded=0;whiteSpace=wrap;html=1;" vertex="1" parent="1">
          <mxGeometry x="-887.37" y="1175" width="160" height="30" as="geometry" />
        </mxCell>
        <mxCell id="ahqFP6FvDFRgQjZvx1j--18" value="&lt;font style=&quot;font-size: 14px;&quot;&gt;Date&lt;/font&gt;" style="rounded=0;whiteSpace=wrap;html=1;" vertex="1" parent="1">
          <mxGeometry x="-997.37" y="1225" width="100" height="30" as="geometry" />
        </mxCell>
        <mxCell id="ahqFP6FvDFRgQjZvx1j--19" value="&lt;font style=&quot;font-size: 14px;&quot;&gt;End Time:&lt;/font&gt;" style="rounded=0;whiteSpace=wrap;html=1;" vertex="1" parent="1">
          <mxGeometry x="-997.37" y="1275" width="100" height="30" as="geometry" />
        </mxCell>
        <mxCell id="ahqFP6FvDFRgQjZvx1j--20" value="" style="rounded=0;whiteSpace=wrap;html=1;" vertex="1" parent="1">
          <mxGeometry x="-887.37" y="1225" width="160" height="30" as="geometry" />
        </mxCell>
        <mxCell id="ahqFP6FvDFRgQjZvx1j--21" value="" style="rounded=0;whiteSpace=wrap;html=1;" vertex="1" parent="1">
          <mxGeometry x="-887.37" y="1275" width="160" height="30" as="geometry" />
        </mxCell>
        <mxCell id="ahqFP6FvDFRgQjZvx1j--22" value="Start" style="rounded=1;whiteSpace=wrap;html=1;" vertex="1" parent="1">
          <mxGeometry x="-917.37" y="1335" width="120" height="40" as="geometry" />
        </mxCell>
      </root>
    </mxGraphModel>
  </diagram>
</mxfile>
